<?xml version="1.0" standalone="no"?>
<!DOCTYPE svg PUBLIC "-//W3C//DTD SVG 20010904//EN"
 "http://www.w3.org/TR/2001/REC-SVG-20010904/DTD/svg10.dtd">
<svg version="1.0" xmlns="http://www.w3.org/2000/svg"
 width="640.000000pt" height="308.000000pt" viewBox="0 0 640.000000 308.000000"
 preserveAspectRatio="xMidYMid meet">

<g transform="translate(0.000000,308.000000) scale(0.100000,-0.100000)"
fill="#000000" stroke="none">
<path d="M5581 2896 c-9 -11 -3 -21 31 -49 23 -20 44 -34 46 -32 2 1 -3 19
-12 38 -17 43 -48 63 -65 43z"/>
<path d="M5301 2844 c-25 -31 -15 -65 22 -78 35 -13 69 16 65 53 -3 28 -38 37
-45 14 -3 -8 4 -13 17 -13 13 0 20 -5 18 -12 -3 -7 -16 -13 -29 -13 -31 0 -40
42 -13 62 15 11 16 13 2 13 -9 0 -26 -12 -37 -26z"/>
<path d="M5456 2851 c-32 -7 -48 -31 -21 -31 10 0 13 5 9 12 -4 6 -3 8 3 5 5
-3 31 0 59 8 46 12 47 13 14 13 -19 0 -48 -3 -64 -7z"/>
<path d="M4327 2823 c-13 -15 -15 -52 -14 -248 l2 -230 135 -3 c77 -2 151 2
172 8 72 21 122 117 95 182 -8 18 -24 42 -36 52 -27 24 -26 30 4 70 31 41 33
93 4 130 -38 48 -67 56 -212 56 -115 0 -136 -2 -150 -17z m271 -75 c16 -16 15
-73 -1 -86 -14 -12 -150 -24 -173 -15 -10 3 -14 22 -14 59 l0 54 88 0 c55 0
92 -4 100 -12z m6 -197 c10 -9 16 -29 16 -57 0 -61 -22 -74 -127 -74 l-83 0 0
76 0 76 89 -4 c53 -2 96 -9 105 -17z"/>
<path d="M5176 2832 c-2 -4 -3 -113 -2 -242 l1 -235 38 -3 37 -3 0 193 c0 106
3 209 6 229 4 26 2 40 -11 52 -17 17 -60 23 -69 9z"/>
<path d="M1535 2787 c-107 -51 -155 -120 -155 -221 0 -74 18 -112 86 -175 41
-39 54 -58 54 -80 0 -27 -53 -213 -145 -506 -24 -77 -55 -179 -70 -227 -22
-73 -30 -88 -47 -88 -68 0 -127 -72 -107 -130 6 -16 9 -36 6 -44 -3 -7 -178
-143 -389 -301 -211 -159 -399 -301 -418 -317 -41 -33 -58 -34 -135 -8 -57 19
-147 26 -192 14 l-23 -6 0 -303 0 -303 23 -6 c12 -3 51 -6 87 -5 64 0 113 15
175 53 32 20 111 118 139 173 20 40 20 134 1 188 -26 71 -20 96 33 138 48 38
70 58 205 179 42 39 88 79 100 88 13 10 38 32 55 48 17 16 108 96 202 178
l171 149 55 0 c50 0 59 3 85 33 36 40 40 99 8 141 l-21 28 147 369 c200 499
173 450 259 475 178 54 246 122 246 248 0 74 -9 99 -55 149 -53 59 -121 85
-235 89 -84 4 -101 1 -145 -20z"/>
<path d="M5295 2718 c-3 -13 -4 -102 -3 -198 l3 -175 45 0 45 0 2 175 c2 197
-4 220 -57 220 -22 0 -31 -5 -35 -22z"/>
<path d="M5410 2727 c0 -13 40 -154 84 -299 l27 -88 63 0 c39 0 67 5 73 13 8
9 71 206 119 370 4 14 -1 17 -35 17 -22 0 -46 -7 -55 -15 -18 -18 -49 -99 -71
-186 -9 -35 -20 -68 -24 -72 -5 -4 -16 20 -25 55 -10 35 -29 98 -43 141 l-24
77 -45 0 c-29 0 -44 -4 -44 -13z"/>
<path d="M6022 2731 c-38 -10 -78 -43 -85 -72 -5 -17 0 -19 42 -19 26 0 52 5
58 11 5 5 32 9 59 7 45 -3 49 -5 52 -30 3 -28 -6 -33 -108 -53 -52 -11 -97
-42 -109 -77 -15 -41 -14 -54 5 -94 24 -51 63 -67 146 -62 85 7 142 41 158 97
11 41 13 136 4 203 -6 40 -11 48 -45 68 -44 24 -126 34 -177 21z m138 -232 c0
-57 -42 -99 -99 -99 -35 0 -43 4 -53 26 -19 40 6 75 67 96 78 27 85 25 85 -23z"/>
<path d="M6070 2497 c-31 -15 -46 -29 -48 -44 -2 -13 0 -23 3 -23 4 0 20 10
35 23 15 12 35 27 45 32 10 6 16 16 14 22 -3 8 -19 4 -49 -10z"/>
<path d="M4905 2719 c4 -6 -4 -9 -22 -7 -19 2 -27 -1 -25 -11 2 -8 -3 -11 -12
-8 -10 4 -26 -7 -45 -30 -23 -28 -29 -43 -25 -67 4 -25 3 -27 -5 -11 -7 15
-10 4 -10 -45 -1 -49 2 -61 10 -50 9 12 10 10 6 -8 -4 -15 1 -30 12 -41 10
-10 20 -25 24 -34 4 -11 12 -14 24 -10 10 3 15 3 11 -2 -12 -12 58 -45 97 -45
38 0 97 24 133 55 34 28 70 117 40 99 -7 -4 -8 -3 -4 5 4 6 12 9 17 6 13 -8
10 54 -4 91 -16 42 -51 83 -68 81 -8 -2 -21 -7 -29 -12 -13 -8 -13 -7 -1 8 7
9 17 14 22 11 5 -3 9 -2 9 1 0 3 -16 13 -35 21 -40 17 -130 19 -120 3z m-5
-23 c0 -2 -7 -7 -16 -10 -8 -3 -12 -2 -9 4 6 10 25 14 25 6z m70 -45 c0 -11 8
-26 18 -33 11 -7 24 -23 31 -35 6 -13 22 -25 36 -29 28 -7 41 -33 20 -39 -8
-3 -22 -7 -30 -10 -8 -2 -15 -13 -15 -24 0 -13 -8 -21 -22 -23 -13 -2 -29 -15
-36 -30 -7 -16 -21 -28 -32 -28 -13 0 -20 8 -22 28 -3 23 -8 27 -40 30 -34 3
-38 6 -38 32 0 20 -6 31 -20 35 -30 10 -26 45 5 45 18 0 28 7 35 24 6 17 18
26 37 28 20 2 29 9 31 26 4 28 42 31 42 3z m157 -103 c-3 -8 -6 -5 -6 6 -1 11
2 17 5 13 3 -3 4 -12 1 -19z"/>
<path d="M4907 2569 c-24 -20 -17 -25 13 -9 10 5 26 7 34 4 19 -7 21 -50 4
-58 -7 -3 -4 -5 7 -3 12 1 21 11 23 25 7 47 -43 72 -81 41z"/>
<path d="M4906 2517 c3 -10 9 -15 12 -12 3 3 0 11 -7 18 -10 9 -11 8 -5 -6z"/>
<path d="M361 2329 c-14 -6 -31 -7 -38 -4 -8 3 -11 0 -7 -6 6 -10 30 -7 71 8
15 6 16 5 5 -9 -10 -13 -10 -17 0 -21 7 -3 -5 -3 -27 0 -22 3 -47 10 -57 14
-11 6 -24 2 -40 -11 -12 -11 -19 -19 -15 -20 5 0 15 7 24 15 8 9 18 14 20 11
3 -3 -2 -12 -11 -21 -18 -19 -21 -42 -6 -47 6 -2 2 -13 -9 -25 -12 -12 -18
-28 -15 -36 3 -8 0 -18 -7 -23 -9 -5 -10 -2 -6 9 3 10 3 17 -2 17 -13 0 -19
59 -7 64 7 3 6 5 -2 5 -18 1 -32 -43 -32 -102 0 -37 3 -48 10 -37 9 13 10 13
11 0 1 -8 0 -22 -1 -30 -1 -10 3 -9 14 5 9 12 11 24 5 30 -14 14 -11 25 6 25
8 0 15 -4 15 -9 0 -5 10 -11 23 -13 12 -2 21 -9 20 -16 -2 -6 2 -12 7 -12 6 0
10 7 10 15 0 17 16 20 25 5 3 -5 0 -10 -7 -10 -10 0 -9 -3 2 -11 13 -9 13 -10
-1 -6 -12 4 -18 -2 -22 -19 -3 -19 4 -30 36 -54 37 -27 41 -28 68 -15 15 8 34
15 41 14 7 0 2 -5 -11 -10 -35 -14 -19 -22 27 -14 34 5 39 9 35 28 -4 16 -2
18 5 8 8 -11 16 -11 50 4 23 10 39 22 36 26 -2 4 3 12 13 17 12 7 18 24 19 55
1 24 4 53 8 63 8 26 -4 41 -37 49 -37 10 -34 -2 6 -19 27 -12 28 -15 10 -15
-12 -1 -31 9 -43 21 -23 25 -26 40 -6 32 10 -4 14 1 13 15 -1 21 -17 30 -17
10 0 -6 -7 -3 -16 5 -8 9 -22 16 -30 16 -8 0 -12 5 -9 10 4 7 -4 9 -22 7 -15
-2 -33 0 -40 5 -17 14 -65 17 -92 7z m159 -73 c0 -8 -7 -16 -15 -20 -10 -4
-15 1 -15 14 0 11 7 20 15 20 8 0 15 -6 15 -14z m50 -86 c10 -6 11 -10 3 -10
-7 0 -13 -4 -13 -10 0 -5 9 -10 20 -10 43 0 17 -43 -34 -56 -16 -4 -31 -15
-33 -25 -3 -11 -14 -19 -24 -19 -12 0 -16 5 -13 15 4 8 13 15 21 15 8 0 20 14
26 30 6 17 15 30 20 30 5 0 6 11 3 25 -7 27 0 31 24 15z m-110 -134 c0 -2 -9
-2 -20 1 -11 3 -20 9 -20 15 0 5 9 4 20 -2 11 -6 20 -12 20 -14z m-77 -3 c-7
-2 -19 -2 -25 0 -7 3 -2 5 12 5 14 0 19 -2 13 -5z m18 -16 c-10 -9 -11 -8 -5
6 3 10 9 15 12 12 3 -3 0 -11 -7 -18z"/>
<path d="M488 2333 c7 -3 16 -2 19 1 4 3 -2 6 -13 5 -11 0 -14 -3 -6 -6z"/>
<path d="M540 2306 c0 -9 30 -14 35 -6 4 6 -3 10 -14 10 -12 0 -21 -2 -21 -4z"/>
<path d="M5682 2249 c-1 -24 4 -41 16 -50 15 -12 15 -12 5 1 -6 8 -13 31 -16
50 l-4 35 -1 -36z"/>
<path d="M5760 2263 c8 -3 19 -11 23 -17 6 -7 7 -6 4 4 -2 8 -12 16 -23 17
-13 2 -15 1 -4 -4z"/>
<path d="M5880 2263 c8 -3 19 -11 23 -17 6 -7 7 -6 4 4 -2 8 -12 16 -23 17
-13 2 -15 1 -4 -4z"/>
<path d="M5927 2263 c-12 -11 -8 -22 13 -33 14 -7 20 -7 20 0 0 5 -7 10 -15
10 -21 0 -19 18 3 23 14 4 14 5 1 6 -9 0 -19 -2 -22 -6z"/>
<path d="M6075 2260 c-4 -6 1 -7 10 -3 10 3 21 0 26 -8 7 -11 9 -11 9 4 0 18
-34 24 -45 7z"/>
<path d="M6141 2233 c-1 -24 1 -43 3 -43 8 0 12 48 5 66 -5 13 -8 7 -8 -23z"/>
<path d="M6215 2263 c6 -4 12 -24 13 -42 2 -19 5 -37 8 -40 3 -3 4 14 2 38 -2
29 -8 46 -18 48 -9 3 -11 1 -5 -4z"/>
<path d="M5731 2229 c-1 -27 15 -40 47 -38 10 1 7 4 -8 8 -14 4 -27 17 -31 31
l-7 25 -1 -26z"/>
<path d="M5846 2233 c-6 -14 -5 -15 5 -6 7 7 10 15 7 18 -3 3 -9 -2 -12 -12z"/>
<path d="M6061 2223 c-1 -16 6 -24 24 -29 14 -4 29 -4 32 0 4 3 -4 6 -16 6
-13 0 -25 9 -31 23 l-9 22 0 -22z"/>
<path d="M6195 2220 c-8 -13 3 -30 18 -30 8 0 7 3 -2 9 -7 5 -10 14 -7 20 4 6
5 11 2 11 -3 0 -8 -4 -11 -10z"/>
<path d="M5935 2200 c-16 -7 -17 -9 -3 -9 9 -1 20 4 23 9 7 11 7 11 -20 0z"/>
<path d="M5878 2193 c6 -2 18 -2 25 0 6 3 1 5 -13 5 -14 0 -19 -2 -12 -5z"/>
<path d="M240 2084 c0 -14 37 -60 46 -57 6 2 17 -3 24 -12 7 -8 17 -15 22 -15
5 0 0 9 -11 21 -11 12 -18 30 -16 41 3 14 0 18 -9 15 -8 -3 -17 -3 -20 1 -7 7
-36 12 -36 6z"/>
<path d="M583 2023 c-21 -4 -21 -6 12 -35 19 -16 32 -35 29 -42 -4 -6 4 -1 16
11 21 19 21 23 7 37 -11 11 -17 12 -19 4 -2 -6 -10 -8 -17 -4 -9 6 -9 11 0 22
6 8 8 13 3 13 -5 -1 -19 -4 -31 -6z"/>
<path d="M557 1989 c7 -7 15 -10 18 -7 3 3 -2 9 -12 12 -14 6 -15 5 -6 -5z"/>
<path d="M656 1955 c-5 -15 48 -74 67 -75 5 0 6 -4 3 -9 -3 -4 6 -19 21 -32
14 -13 23 -18 19 -11 -4 6 -2 12 3 12 6 0 11 -4 11 -8 0 -5 7 -17 16 -28 8
-10 12 -12 8 -4 -4 8 11 -3 34 -24 22 -22 39 -43 36 -47 -10 -16 14 -18 27 -2
12 14 12 16 0 8 -11 -6 -13 -4 -7 11 4 10 4 16 1 12 -3 -3 -23 11 -43 31 -20
20 -44 40 -52 44 -45 22 -57 34 -55 55 1 17 -2 21 -17 16 -20 -6 -25 11 -5 20
6 3 3 4 -9 1 -12 -3 -26 1 -33 9 -10 12 -8 14 11 9 22 -4 22 -4 4 11 -25 20
-32 20 -40 1z"/>
<path d="M1805 1768 c-3 -7 -4 -146 -3 -308 3 -274 4 -295 21 -294 9 1 44 2
77 3 l60 1 0 225 0 225 34 0 c38 0 66 -21 66 -51 0 -19 -28 -53 -49 -60 -8 -3
-12 -32 -12 -84 0 -69 5 -91 35 -164 19 -46 37 -85 38 -87 3 -2 116 -6 151 -5
16 1 16 4 4 29 -8 15 -29 70 -47 123 l-33 96 25 34 c78 107 50 246 -61 301
-43 22 -64 25 -175 27 -97 2 -127 -1 -131 -11z"/>
<path d="M2395 1766 c-17 -7 -44 -29 -62 -49 -28 -32 -32 -43 -38 -129 -10
-135 -3 -297 15 -333 8 -16 33 -42 55 -57 37 -25 47 -27 143 -28 l102 0 0 69
c0 101 0 101 -86 101 l-74 0 0 30 c0 31 12 36 105 42 l40 3 3 48 c4 66 -8 77
-79 77 -58 0 -59 0 -59 29 0 35 13 41 85 41 53 0 54 1 60 33 4 17 5 55 3 82
l-3 50 -90 2 c-59 2 -100 -2 -120 -11z"/>
<path d="M2723 1774 c-10 -4 -13 -75 -13 -305 l0 -299 80 0 80 0 2 218 3 217
69 -2 c81 -3 110 -18 126 -69 32 -95 -13 -177 -104 -191 l-51 -8 -3 -89 -3
-89 58 5 c163 15 273 139 273 308 0 129 -55 226 -157 275 -54 27 -67 29 -203
32 -80 1 -151 0 -157 -3z"/>
<path d="M3440 1771 c-43 -13 -70 -34 -93 -71 -21 -33 -22 -47 -22 -225 0
-222 8 -250 78 -284 43 -20 70 -24 170 -22 l58 1 -3 83 -3 82 -75 5 c-68 5
-75 7 -78 27 -4 29 29 43 99 43 l50 0 -3 63 -3 62 -55 3 c-74 4 -97 24 -64 56
10 11 34 16 75 16 l60 0 -3 83 -3 82 -80 2 c-44 1 -91 -2 -105 -6z"/>
<path d="M3676 1758 c3 -12 33 -76 65 -142 33 -67 59 -128 59 -138 0 -9 -27
-72 -61 -139 -91 -183 -90 -167 -13 -171 36 -2 73 0 82 3 9 4 27 34 40 68 13
34 27 61 30 61 4 0 23 -29 41 -65 19 -36 40 -65 45 -66 25 -2 141 3 144 6 3 3
-26 68 -98 219 l-42 88 43 92 c53 111 78 156 89 156 5 0 10 -26 12 -57 l3 -58
60 -5 60 -5 -2 -204 c0 -113 1 -210 4 -218 4 -9 28 -13 84 -13 l79 0 0 220 0
219 58 3 57 3 3 74 c2 53 -1 77 -10 83 -7 4 -134 8 -281 7 l-269 0 -32 -72
-33 -71 -34 69 -34 70 -78 3 c-77 3 -79 3 -71 -20z"/>
<path d="M4686 1765 c-90 -34 -109 -91 -104 -311 3 -157 5 -172 27 -207 35
-57 80 -75 192 -78 l94 -2 0 84 0 84 -77 3 -78 3 0 29 c0 30 8 33 115 42 30 3
30 4 30 63 l0 60 -65 5 c-62 5 -65 6 -68 32 -4 31 8 36 93 40 l50 3 0 80 0 80
-85 2 c-54 1 -99 -3 -124 -12z"/>
<path d="M4997 1773 c-12 -12 -8 -437 5 -474 27 -80 84 -124 168 -130 l45 -4
3 83 c3 82 3 82 -25 93 -15 6 -31 16 -35 22 -4 7 -8 96 -8 199 0 102 -3 193
-6 202 -5 12 -21 16 -73 16 -37 0 -71 -3 -74 -7z"/>
<path d="M900 1699 c0 -5 5 -7 10 -4 6 3 10 8 10 11 0 2 -4 4 -10 4 -5 0 -10
-5 -10 -11z"/>
<path d="M930 1700 c0 -5 5 -10 11 -10 5 0 7 5 4 10 -3 6 -8 10 -11 10 -2 0
-4 -4 -4 -10z"/>
<path d="M950 1672 c1 -12 35 -49 58 -61 18 -10 21 -9 16 4 -4 8 -10 15 -16
15 -5 0 -20 11 -33 25 -14 13 -25 21 -25 17z"/>
<path d="M355 1605 c-94 -49 -100 -199 -10 -255 23 -14 50 -20 90 -20 54 0 60
3 94 38 20 22 43 50 52 62 l16 24 139 -16 c76 -9 141 -15 142 -13 6 6 -70 25
-143 36 -103 15 -127 26 -160 71 -16 23 -42 50 -57 61 -36 27 -123 33 -163 12z
m-44 -132 c-12 -20 -14 -14 -5 12 4 9 9 14 11 11 3 -2 0 -13 -6 -23z"/>
<path d="M1041 1589 c0 -9 8 -27 19 -40 12 -15 19 -19 20 -10 0 11 5 9 23 -5
l22 -19 -18 22 c-11 12 -25 19 -33 16 -10 -4 -12 0 -7 13 4 11 3 15 -5 11 -6
-4 -13 1 -15 10 -4 15 -5 15 -6 2z"/>
<path d="M1098 1393 c7 -3 16 -2 19 1 4 3 -2 6 -13 5 -11 0 -14 -3 -6 -6z"/>
<path d="M1585 1021 c-16 -4 -40 -13 -52 -19 -37 -20 -91 -92 -102 -137 -6
-25 -11 -134 -11 -254 l0 -211 80 0 80 0 0 198 c0 108 3 207 6 219 7 27 40 39
59 23 12 -10 15 -55 17 -224 l3 -211 78 -3 78 -3 -3 243 -3 243 -29 52 c-21
38 -38 56 -65 66 -50 20 -100 26 -136 18z"/>
<path d="M2129 1021 c-89 -17 -180 -103 -214 -200 -19 -57 -19 -163 0 -229 30
-100 128 -192 221 -207 161 -26 287 153 212 303 -23 47 -24 47 -77 50 -93 5
-101 1 -101 -64 0 -53 2 -56 30 -67 18 -7 30 -19 30 -29 0 -15 -9 -18 -50 -18
-40 0 -56 5 -75 24 -61 62 -51 210 18 248 12 6 49 12 82 12 l60 1 3 76 c2 53
-1 79 -10 86 -18 15 -87 22 -129 14z"/>
<path d="M3025 1023 c-11 -2 -30 -6 -42 -9 -36 -7 -94 -65 -117 -114 -18 -39
-21 -69 -24 -229 -2 -101 -1 -203 3 -227 l6 -45 77 3 77 3 3 217 c2 200 4 217
21 223 10 3 26 3 35 -1 14 -5 16 -31 16 -213 0 -113 4 -212 9 -219 5 -9 29
-12 82 -10 l74 3 0 225 c0 279 -14 328 -105 375 -30 15 -87 24 -115 18z"/>
<path d="M4995 1023 c-88 -21 -126 -50 -156 -121 -17 -38 -19 -71 -19 -273 l0
-230 78 3 77 3 3 67 c2 56 6 68 22 73 17 6 20 16 20 75 0 60 -3 69 -20 75 -17
5 -20 15 -20 70 0 53 3 66 19 75 25 13 27 13 45 -6 14 -13 16 -48 16 -225 l0
-210 78 3 77 3 0 245 c0 260 -1 266 -52 325 -30 34 -120 60 -168 48z"/>
<path d="M1154 996 c-2 -6 -3 -142 -2 -301 l3 -290 78 -3 77 -3 0 306 0 306
-76 -2 c-45 -1 -78 -7 -80 -13z"/>
<path d="M2534 996 c-17 -8 -44 -31 -60 -52 l-29 -37 0 -197 c0 -175 2 -200
19 -232 31 -57 84 -78 195 -78 l92 0 -3 83 c-2 56 -7 82 -15 83 -7 1 -40 2
-73 3 -46 1 -62 5 -67 17 -12 33 11 49 78 54 l64 5 0 59 0 58 -59 4 c-69 6
-76 9 -76 34 0 27 30 40 95 40 l56 0 -3 83 -3 82 -90 2 c-59 2 -101 -2 -121
-11z"/>
<path d="M3355 988 c-3 -13 -4 -149 -3 -303 l3 -280 83 -3 82 -3 0 306 0 305
-80 0 c-74 0 -80 -2 -85 -22z"/>
<path d="M3731 1002 c-38 -11 -88 -70 -100 -118 -17 -66 -14 -311 4 -365 32
-93 87 -122 220 -117 l80 3 0 80 0 80 -75 5 c-73 5 -75 6 -78 32 -4 31 8 36
93 40 l50 3 3 51 c4 62 -6 72 -78 76 -51 3 -55 5 -58 30 -3 29 10 34 103 40
l40 3 0 80 0 80 -90 2 c-49 1 -101 -2 -114 -5z"/>
<path d="M4047 1003 c-4 -3 -7 -141 -7 -305 l0 -298 79 0 c65 0 80 3 85 17 4
9 6 87 6 172 -2 281 -4 261 26 261 42 0 64 -17 64 -51 0 -23 -7 -34 -30 -47
-29 -17 -30 -18 -29 -97 0 -70 5 -91 38 -165 l37 -85 82 -3 c45 -2 82 -2 82 0
0 2 -20 56 -44 121 l-44 118 30 50 c72 114 38 251 -73 298 -40 18 -69 21 -172
21 -68 0 -127 -3 -130 -7z"/>
<path d="M4557 1004 c-4 -4 -7 -142 -7 -306 l0 -298 80 0 80 0 -2 303 -3 302
-70 3 c-39 1 -74 0 -78 -4z"/>
<path d="M3371 163 c0 -25 1 -26 9 -8 12 27 12 35 0 35 -5 0 -10 -12 -9 -27z"/>
<path d="M3090 160 c6 -11 7 -37 4 -60 -9 -58 10 -100 47 -100 32 0 37 14 15
45 -18 27 -31 109 -15 99 7 -4 10 -2 7 7 -3 8 -12 13 -21 13 -9 -1 -14 2 -11
7 3 5 -4 9 -16 9 -17 0 -19 -3 -10 -20z"/>
<path d="M3333 165 c-7 -8 -13 -23 -13 -34 0 -11 -9 -38 -20 -59 -27 -52 -18
-72 30 -72 34 0 38 3 44 31 10 52 7 90 -10 106 -8 9 -13 22 -10 29 7 18 -5 17
-21 -1z"/>
<path d="M2533 100 c14 -16 31 -46 38 -65 l13 -35 71 0 70 1 -44 39 c-43 37
-137 90 -161 90 -7 0 0 -13 13 -30z"/>
<path d="M3151 109 c0 -14 6 -34 14 -45 8 -10 15 -30 16 -44 2 -24 2 -24 6 -2
3 13 -2 33 -10 46 -8 12 -17 33 -20 47 l-4 24 -2 -26z"/>
<path d="M3448 99 c4 -24 -1 -36 -22 -55 -36 -34 -33 -44 14 -44 39 0 40 1 40
35 0 30 -23 95 -34 95 -1 0 0 -14 2 -31z"/>
<path d="M3002 95 c-7 -14 -12 -41 -12 -60 0 -34 1 -35 41 -35 l41 0 -32 36
c-23 27 -30 43 -26 60 8 31 2 31 -12 -1z"/>
<path d="M3891 93 c-29 -15 -69 -42 -90 -60 l-36 -32 66 -1 66 0 18 40 c10 22
24 45 32 51 14 13 18 29 5 29 -4 0 -32 -12 -61 -27z"/>
<path d="M2341 71 c-18 -61 -15 -71 20 -71 23 0 30 4 26 14 -3 8 -9 31 -13 50
-9 50 -19 52 -33 7z"/>
<path d="M4106 64 c-4 -19 -10 -42 -13 -50 -4 -10 3 -14 27 -14 29 0 32 2 26
23 -4 12 -9 34 -12 50 -9 37 -20 34 -28 -9z"/>
<path d="M2937 43 c-12 -12 -7 -43 7 -43 9 0 12 8 8 25 -5 27 -6 28 -15 18z"/>
<path d="M3520 41 c0 -5 -7 -17 -16 -25 -14 -15 -13 -16 10 -16 19 0 26 5 26
19 0 11 -4 23 -10 26 -5 3 -10 2 -10 -4z"/>
</g>
</svg>
